<svg id="レイヤー_1" data-name="レイヤー 1" xmlns="http://www.w3.org/2000/svg" viewBox="0 0 734.05 215.81"><defs><style>.cls-1{fill:#fff;}</style></defs><path class="cls-1" d="M10.89,16.76c-.89-.1-3.1-.1-5.07-.1s-3.75,0-4.88.1c0-.84-.1-1.68-.1-2.47C.84,3.65,11.14.35,27.16.35c17.25,0,25.38,4.28,25.38,12.07,0,6.75-4,9.22-23.56,11.09-16.76,1.58-19.52,2.56-19.62,6.6,7.5-.05,16.81-.19,21.94-.19,7.88,0,14.88-.05,21-.2-.05,1.33-.05,3.25-.05,5.08,0,1.33,0,2.61.05,3.25H0c.05-.84.1-1.92.1-3.2,0-.84,0-2,0-2.91C.05,23.12,7.39,21,24.5,19c15.42-1.83,18-2.86,18-6.26,0-3.6-4.24-5.38-15.23-5.38-12,0-16.41,2.22-16.41,7.59Z"/><path class="cls-1" d="M88.81,39.13c-18.43,0-30.07-6.11-30.07-19.86S71.07,0,88.86,0s30.31,5.47,30.31,19.27S107.24,39.13,88.81,39.13ZM69,19.42C69,27.65,77,31.1,89,31.1s19.91-3.65,19.91-11.68S100.93,7.84,89,7.84,69,11.24,69,19.42Z"/><path class="cls-1" d="M136.07,16.76c-.89-.1-3.11-.1-5.08-.1s-3.74,0-4.88.1c0-.84-.1-1.68-.1-2.47C126,3.65,136.31.35,152.33.35c17.25,0,25.38,4.28,25.38,12.07,0,6.75-4,9.22-23.55,11.09-16.76,1.58-19.52,2.56-19.62,6.6,7.49-.05,16.81-.19,21.93-.19,7.89,0,14.89-.05,21.05-.2-.05,1.33-.05,3.25-.05,5.08,0,1.33,0,2.61.05,3.25H125.18c0-.84.09-1.92.09-3.2,0-.84,0-2,0-2.91,0-8.82,7.34-10.94,24.44-13,15.43-1.83,18-2.86,18-6.26,0-3.6-4.24-5.38-15.23-5.38-12,0-16.41,2.22-16.41,7.59Z"/><path class="cls-1" d="M195.21,16.76c-.89-.1-3.11-.1-5.08-.1s-3.75,0-4.88.1c-.05-.84-.1-1.68-.1-2.47,0-10.64,10.3-13.94,26.32-13.94,17.25,0,25.38,4.28,25.38,12.07,0,6.75-4,9.22-23.56,11.09-16.75,1.58-19.51,2.56-19.61,6.6,7.49-.05,16.81-.19,21.93-.19,7.89,0,14.89-.05,21-.2,0,1.33,0,3.25,0,5.08,0,1.33,0,2.61,0,3.25H184.31c.05-.84.1-1.92.1-3.2,0-.84,0-2,0-2.91,0-8.82,7.35-10.94,24.45-13,15.43-1.83,18-2.86,18-6.26,0-3.6-4.24-5.38-15.23-5.38-12,0-16.41,2.22-16.41,7.59Z"/><path class="cls-1" d="M258.23,3.61l-13.4,37.55H241L254.43,3.61Z"/><path class="cls-1" d="M291.78,39.13c-18.44,0-30.07-6.11-30.07-19.86S274,0,291.82,0s30.32,5.47,30.32,19.27S310.21,39.13,291.78,39.13ZM272,19.42c0,8.23,7.94,11.68,19.91,11.68s19.91-3.65,19.91-11.68S303.9,7.84,291.92,7.84,272,11.24,272,19.42Z"/><path class="cls-1" d="M369.64,19.32a35.37,35.37,0,0,1,6.61.89c4.53,1.23,6.16,3.45,6.16,7.54,0,7.24-7.74,11.09-27.11,11.09S328.19,35,328.19,27.75c0-4.09,2.12-6.26,6.11-7.54a26.51,26.51,0,0,1,6.61-.94V19a27,27,0,0,1-6.7-1.34c-3.6-1.33-5.67-3.54-5.67-7.29,0-6.61,7.19-10.1,26.71-10.1,19.67,0,26.81,3.49,26.81,10.1,0,3.75-2,6-5.67,7.29A26.92,26.92,0,0,1,369.64,19Zm2.91,7.15c0-2.91-2.66-4.19-17.25-4.19s-17.25,1.28-17.25,4.19,3.4,4.58,17.25,4.58S372.55,29.33,372.55,26.47ZM355.3,16c14.49,0,17.05-1.13,17.05-4s-2.76-4.19-17.1-4.19-17,1.48-17,4.19S340.86,16,355.3,16Z"/><path class="cls-1" d="M403.44,3.61,390,41.16h-3.87L399.64,3.61Z"/><path class="cls-1" d="M418.21,16.76c-.89-.1-3.11-.1-5.08-.1s-3.75,0-4.88.1c-.05-.84-.1-1.68-.1-2.47,0-10.64,10.3-13.94,26.32-13.94,17.25,0,25.38,4.28,25.38,12.07,0,6.75-4,9.22-23.56,11.09-16.75,1.58-19.51,2.56-19.61,6.6,7.49-.05,16.8-.19,21.93-.19,7.89,0,14.88-.05,21.05-.2-.05,1.33-.05,3.25-.05,5.08,0,1.33,0,2.61.05,3.25H407.31c.05-.84.1-1.92.1-3.2,0-.84-.05-2-.05-2.91,0-8.82,7.35-10.94,24.45-13,15.43-1.83,18-2.86,18-6.26,0-3.6-4.24-5.38-15.23-5.38-12,0-16.41,2.22-16.41,7.59Z"/><path class="cls-1" d="M508,19.32a35.25,35.25,0,0,1,6.6.89c4.54,1.23,6.17,3.45,6.17,7.54,0,7.24-7.74,11.09-27.11,11.09S466.5,35,466.5,27.75c0-4.09,2.12-6.26,6.11-7.54a26.44,26.44,0,0,1,6.61-.94V19a27.05,27.05,0,0,1-6.71-1.34c-3.59-1.33-5.66-3.54-5.66-7.29C466.85,3.79,474,.3,493.56.3s26.81,3.49,26.81,10.1c0,3.75-2,6-5.67,7.29A26.92,26.92,0,0,1,508,19Zm2.91,7.15c0-2.91-2.66-4.19-17.25-4.19s-17.25,1.28-17.25,4.19,3.4,4.58,17.25,4.58S510.86,29.33,510.86,26.47ZM493.61,16c14.49,0,17.05-1.13,17.05-4s-2.76-4.19-17.1-4.19-17,1.48-17,4.19S479.17,16,493.61,16Z"/><path class="cls-1" d="M533.86,41.64a34.45,34.45,0,0,1-4-7.92A35.05,35.05,0,0,1,528,22.26a36.13,36.13,0,0,1,1.38-9.89,34,34,0,0,1,4.47-9.29l3.31,2.3a27.18,27.18,0,0,0-3.84,8,30.56,30.56,0,0,0-1.26,9,30.78,30.78,0,0,0,1.23,8.85,29,29,0,0,0,3.8,8Z"/><path class="cls-1" d="M586.68,12.52c0-4-2.76-5.42-16.95-5.42-13.16,0-16.22,1.33-16.22,4s1.73,3.74,19.13,4.39c19.61.74,25.53,3.3,25.53,11.38,0,8.38-7.1,12.22-27.21,12.22S542.77,36,542.77,27.8a25.88,25.88,0,0,1,.15-2.71c1.33.14,3.3.24,5.12.24s3.75,0,5.13-.1a6.31,6.31,0,0,0,0,1c0,4.09,4.53,5.47,17.69,5.47,14.1,0,17.2-1.48,17.2-4.34,0-3.1-2.51-4-18.43-4.43-21.09-.54-26.17-3.85-26.17-11.14C543.41,4.14,550.46,0,569.88,0c20.3,0,26.86,2.81,26.86,11.48,0,.74,0,1.48,0,2.32-1.13-.1-3.06-.1-5-.1s-4,0-5,.1Z"/><path class="cls-1" d="M657.21,8.67c-.2,3.9-.2,7.35-.2,14.15,0,6.46,0,10.94.2,15.23H647c0-2.86.09-5,.24-7.89l-.24-.05c-3,6.12-9.62,8.83-20.16,8.83-12.42,0-19.57-4.29-19.57-14.89,0-2.81,0-4.73,0-6.75,0-2.91,0-5.82-.15-8.63h10.2c-.14,3.11-.19,8-.19,13,0,7.29,3.74,10,13.7,10,9.12,0,16.31-3.35,16.31-11.09,0-6.35,0-9.66-.1-11.88Z"/><path class="cls-1" d="M708.51,38.05c.1-3.11.15-8,.15-13,0-7.25-3.7-9.91-13.71-9.91-9.07,0-16.31,3.35-16.31,11,0,6.36.05,9.66.1,11.88H668.63c.15-3.89.15-7.34.15-14.15,0-6.5,0-10.94-.15-15.23h10.26c-.1,2.86-.15,4.93-.3,7.89l.3.05c3-6.11,9.61-8.82,20.15-8.82,12.42,0,19.57,4.29,19.57,14.88,0,2.81-.1,4.73-.1,6.75,0,2.91,0,5.77.2,8.63Z"/><path class="cls-1" d="M728.21,3.08a34,34,0,0,1,4.47,9.29,36.2,36.2,0,0,1,1.37,9.93,34.33,34.33,0,0,1-5.84,19.34l-3.28-2.37a28.9,28.9,0,0,0,3.84-8A30.39,30.39,0,0,0,730,22.38a30.23,30.23,0,0,0-1.27-9,28.48,28.48,0,0,0-3.83-8Z"/><path class="cls-1" d="M3.4,73.66c0-7.84-.39-10.74-.54-13.85a18.48,18.48,0,0,0,6-4.63c.89,0,1.83,0,2.66,0s1.78,0,2.32,0c-.15,5.42-.2,10.59-.2,18.48s.05,12.67.2,18.48c-2.17,0-3.65,0-5.13,0s-3.1,0-5.42,0C3.35,86.33,3.4,81.5,3.4,73.66Z"/><path class="cls-1" d="M71,55.18c-.1,1.18-.1,3.3-.1,4.68,0,2.51,0,3.94.1,4.68C59,72.28,49.14,82.19,48.3,92.14c-1.73,0-4-.1-6.11-.1-2.57,0-4.69,0-6.51.1.79-11,12.91-21.93,24.55-27.94-12.23,0-27.41,0-39.24,0,.15-1.53.15-3,.15-4.64A44.21,44.21,0,0,0,21,55.18Z"/><path class="cls-1" d="M79.26,71c-2,0-3.36-1.57-3.36-3.77A3.4,3.4,0,1,1,79.26,71Zm0,12.82c-2,0-3.36-1.56-3.36-3.77a3.4,3.4,0,1,1,3.36,3.77Z"/><path class="cls-1" d="M132.28,73.37a42.05,42.05,0,0,1,5.08.78c4.68,1.23,6.31,3.6,6.31,7.69,0,7.74-9.32,11.24-26.81,11.24-20.46,0-27.41-4.88-27.41-12.77a11.48,11.48,0,0,1,0-1.28,38.28,38.28,0,0,0,4.54.2,41.84,41.84,0,0,0,4.73-.2v.64c0,3.8,4.09,5.87,18,5.87,14.59,0,17.45-1.87,17.45-4.83,0-2.81-3.06-4.24-14.35-4.24-4.53,0-9.21,0-14.54.15.1-1,.15-2.37.15-3.6a25.62,25.62,0,0,0-.1-3c3.21,0,8.09.15,14.49.15,11.39,0,14.3-1.43,14.3-4,0-2.91-2.66-4.29-17.11-4.29-13.45,0-17.84,1.68-17.84,5.37v1.09a41.84,41.84,0,0,0-4.73-.2,39.57,39.57,0,0,0-4.58.2V66.81c0-7.89,6.55-12.62,26.76-12.62,19.17,0,26.71,3.4,26.71,10.4,0,3.8-2.12,6.46-5.81,7.64a31.41,31.41,0,0,1-5.28,1Z"/><path class="cls-1" d="M180,93.23c-18.44,0-30.07-6.11-30.07-19.86S162.24,54.09,180,54.09s30.31,5.47,30.31,19.28S198.42,93.23,180,93.23ZM160.22,73.51c0,8.23,7.94,11.68,19.91,11.68s19.92-3.64,19.92-11.68-7.94-11.58-19.92-11.58S160.22,65.33,160.22,73.51Z"/><path class="cls-1" d="M214.3,72.21a21.08,21.08,0,0,0,3.47.24H223a17.47,17.47,0,0,0,3.5-.24v4.58a18.12,18.12,0,0,0-3.5-.24h-5.21a18.1,18.1,0,0,0-3.47.24Z"/><path class="cls-1" d="M241.77,70.85c-.89-.1-3.11-.1-5.08-.1s-3.75,0-4.88.1c-.05-.84-.1-1.67-.1-2.46,0-10.65,10.3-14,26.32-14,17.25,0,25.38,4.29,25.38,12.07,0,6.76-4,9.22-23.56,11.09-16.75,1.58-19.51,2.57-19.61,6.61,7.49,0,16.81-.2,21.93-.2,7.89,0,14.89-.05,21.05-.2-.05,1.33-.05,3.26-.05,5.08,0,1.33,0,2.61.05,3.25H230.88c0-.84.09-1.92.09-3.2,0-.84-.05-2-.05-2.91,0-8.82,7.35-10.94,24.45-13,15.43-1.82,18-2.86,18-6.26,0-3.6-4.24-5.37-15.23-5.37-12,0-16.41,2.22-16.41,7.59Z"/><path class="cls-1" d="M293.41,73.66c0-7.84-.39-10.74-.54-13.85a18.37,18.37,0,0,0,6-4.63c.89,0,1.83,0,2.67,0s1.77,0,2.31,0c-.14,5.42-.19,10.59-.19,18.48s.05,12.67.19,18.48c-2.17,0-3.64,0-5.12,0s-3.11,0-5.42,0C293.36,86.33,293.41,81.5,293.41,73.66Z"/><path class="cls-1" d="M316.64,71c-2,0-3.36-1.57-3.36-3.77A3.4,3.4,0,1,1,316.64,71Zm0,12.82c-2,0-3.36-1.56-3.36-3.77a3.4,3.4,0,1,1,3.36,3.77Z"/><path class="cls-1" d="M356.41,93.23c-18.44,0-30.07-6.11-30.07-19.86s12.32-19.28,30.11-19.28,30.32,5.47,30.32,19.28S374.84,93.23,356.41,93.23ZM336.64,73.51c0,8.23,7.94,11.68,19.91,11.68s19.91-3.64,19.91-11.68-7.93-11.58-19.91-11.58S336.64,65.33,336.64,73.51Z"/><path class="cls-1" d="M422.44,93.23c-18.43,0-30.06-6.11-30.06-19.86s12.32-19.28,30.11-19.28,30.31,5.47,30.31,19.28S440.88,93.23,422.44,93.23ZM402.68,73.51c0,8.23,7.93,11.68,19.91,11.68s19.91-3.64,19.91-11.68-7.93-11.58-19.91-11.58S402.68,65.33,402.68,73.51Z"/><path class="cls-1" d="M44.21,136.11c-.1-1.28-.15-2.27-.15-3.6,1.48.05,3,.05,4.19.05s2.71,0,4.14-.05c0,2.22-.15,7.2-.15,13.6,0,5,1.09,6.8,4.14,6.8s5.52-2.46,5.52-9.71c0-11.18-7.29-17.39-26.32-17.39-18.18,0-27.4,5.71-27.4,18.33,0,5,1.14,10.65,3.21,13.7a70.7,70.7,0,0,0-8.28.45c-1.34-3-2.42-8.48-2.42-13.9,0-15.58,9.81-24.65,34.8-24.65,24.2,0,33.66,8,33.66,23.51,0,10.11-4.49,15.43-12.72,15.43-6.5,0-10-2.32-10-8.58V150l-.2,0c-1.82,4.63-6.31,8.67-15.53,8.72-10.54-.1-15.87-4.68-15.87-13.5,0-9,6.12-13.51,15.23-13.51,6,0,11,1.53,13.85,4.49Zm0,3.74a21,21,0,0,0-10.79-2.51c-6.76,0-10.6,2.27-10.6,7.44,0,5.67,3.79,8.13,10.1,8.13,6.11,0,11.29-2.76,11.29-8.57Z"/><path class="cls-1" d="M106.65,159.32c-21.69,0-31.89-7.64-31.89-20,0-12.67,10.94-19.86,31.89-19.86s31.84,7.19,31.84,19.86C138.49,151.68,128.29,159.32,106.65,159.32Zm21.44-19.91c0-7.79-6.71-11.78-21.44-11.78s-21.49,4-21.49,11.78,6.65,11.78,21.49,11.78S128.09,147.15,128.09,139.41Z"/><path class="cls-1" d="M191.71,157.89c-.59-1.23-2.32-4-4.53-7.54-5.77,0-11.73,0-16.37,0-4.14,0-10.35,0-15.92,0-2.16,3.25-4,6-4.88,7.54H137.74c7.3-9.56,22.28-30.65,25.93-37h15c4.43,7.24,18.68,27,26.27,37Zm-8.92-14.34c-2.46-3.75-5-7.59-7.2-10.7s-3.4-5.12-4.43-6.75c-1.09,1.68-2.52,3.85-4.49,6.85-2.12,3.16-4.68,6.9-7.19,10.6,4,0,8.28,0,11.38,0C174.17,143.6,178.6,143.6,182.79,143.55Z"/><path class="cls-1" d="M251,132.36c0-4-2.76-5.42-17-5.42-13.16,0-16.21,1.33-16.21,4s1.72,3.75,19.12,4.39c19.62.74,25.53,3.3,25.53,11.38,0,8.38-7.1,12.23-27.21,12.23S207,155.82,207,147.64a26,26,0,0,1,.15-2.71,50.26,50.26,0,0,0,5.13.25c1.92,0,3.74,0,5.12-.1a6.12,6.12,0,0,0-.05,1c0,4.09,4.54,5.47,17.7,5.47,14.09,0,17.2-1.48,17.2-4.33,0-3.11-2.52-4-18.44-4.44-21.09-.54-26.17-3.84-26.17-11.14,0-7.64,7.05-11.78,26.47-11.78,20.31,0,26.86,2.81,26.86,11.49,0,.74,0,1.47-.05,2.31-1.13-.1-3.05-.1-5-.1s-4,0-5,.1Z"/><path class="cls-1" d="M271.25,157.89c.14-6.31.14-10.64.14-18.48s0-12.22-.14-18.48H281.7c-.2,6.21-.15,10.54-.15,18.48,0,7.74-.05,12.12.15,18.48Z"/><path class="cls-1" d="M334.33,132.36c0-4-2.76-5.42-16.95-5.42-13.16,0-16.22,1.33-16.22,4s1.73,3.75,19.12,4.39c19.62.74,25.53,3.3,25.53,11.38,0,8.38-7.09,12.23-27.2,12.23s-28.19-3.16-28.19-11.34c0-.84.05-1.77.14-2.71a50.56,50.56,0,0,0,5.13.25c1.92,0,3.75,0,5.13-.1a6.12,6.12,0,0,0-.05,1c0,4.09,4.53,5.47,17.69,5.47,14.1,0,17.2-1.48,17.2-4.33,0-3.11-2.51-4-18.43-4.44-21.1-.54-26.17-3.84-26.17-11.14,0-7.64,7.05-11.78,26.46-11.78,20.31,0,26.86,2.81,26.86,11.49,0,.74,0,1.47,0,2.31-1.14-.1-3.06-.1-5-.1s-4,0-5,.1Z"/><path class="cls-1" d="M389.67,120.93c12.62,0,19.72,2.61,19.72,13.5,0,10.45-6.61,14.44-19.77,14.44-7.93,0-13.35.1-23.9-.15,0,3.55.2,6.66.39,9.17H355.32c.15-5.37.2-10.6.2-18.48s0-13.31-.2-18.48Zm9.66,13.85c0-5.18-3.15-6.66-11.58-6.66-4.63,0-16.86,0-22.13.15v13.21c3.65,0,12.77.1,22,.1C396.38,141.58,399.33,139.71,399.33,134.78Z"/><path class="cls-1" d="M459.46,157.89c-.59-1.23-2.32-4-4.54-7.54-5.76,0-11.73,0-16.36,0-4.14,0-10.35,0-15.92,0-2.17,3.25-4,6-4.88,7.54H405.49c7.29-9.56,22.28-30.65,25.92-37h15c4.43,7.24,18.67,27,26.26,37Zm-8.92-14.34c-2.47-3.75-5-7.59-7.2-10.7s-3.4-5.12-4.44-6.75c-1.08,1.68-2.51,3.85-4.48,6.85-2.12,3.16-4.68,6.9-7.2,10.6,4,0,8.28,0,11.39,0C441.91,143.6,446.35,143.6,450.54,143.55Z"/><path class="cls-1" d="M519.24,142.46c7.78.84,11.18,2.42,13.25,8.14a72.72,72.72,0,0,0,2.81,7.29h-9.12c-1.92,0-2.21-.49-3.25-4.14-2.56-6.16-3.55-7.74-13.21-7.74H488.28c.1,4.78.3,8.92.6,11.88h-10.7c.1-5.37.2-10.55.2-18.48s-.05-13.16-.2-18.48H514c12.32,0,18.58,3,18.58,10.69,0,6.36-4.09,9.66-13.3,10.65Zm-8.63-3.5c8.87,0,12.08-2,12.08-5.71,0-3.9-3.11-5-11.78-5-4.54,0-17.3,0-22.68.2,0,3.5,0,7.05,0,10.45C491.88,139,501.15,139,510.61,139Z"/><path class="cls-1" d="M599.17,120.93c-8.28,5-24.2,14.83-33,19.07a106.49,106.49,0,0,1,11.29,5.72c14.19,7.74,20.35,10.79,23.26,12.17H586a9.16,9.16,0,0,1-5.57-1.43c-7.24-4-19.12-10.59-26.12-13.4h-.24c0,5.42,0,9.61.24,14.83h-10.6c.15-6.36.2-10.64.2-18.48s0-12.17-.2-18.48h10.6c-.29,6.06-.24,10.59-.24,17.79h.49c3.64-2.17,7.64-4.49,10.84-6.51,8.33-4.92,13.7-8.23,18.29-11.28Z"/><path class="cls-1" d="M32.18,212.13C12.27,212.13,0,205.87,0,192.36,0,178.42,12.52,173,31.54,173s29.67,4,29.67,14.25a7.11,7.11,0,0,1-.05,1c-1.08-.05-3-.1-4.92-.1-2.07,0-4,.05-5.13.1,0-.19,0-.44,0-.64,0-4.83-5.87-6.95-19.67-6.95s-21,3.7-21,11.88c0,7.69,7,12,21.73,12,13.21,0,18.58-2.37,19.42-8-7.19,0-18.58.1-24.84.2,0-.59,0-1.82,0-2.41,0-1.09,0-2.07,0-2.81,7.45.09,15.08.05,20.65.05,3.65,0,8.92.09,13.8-.05C62.2,204.69,58,212.13,32.18,212.13Z"/><path class="cls-1" d="M69.14,211c.15-6.55.15-11.68.15-18.68,0-7.83,0-12.32-.15-19.46H79c-.25,7-.2,11.53-.2,19.86,0,7.24,0,11.78.2,18.28Z"/><path class="cls-1" d="M125.87,193.74c0-5.27-2.17-7.19-14.15-7.19s-14.49,2.22-14.39,6.16c-1.28-.15-3-.1-4.63-.15a36.85,36.85,0,0,0-4.19.15c.44-9.61,7-12.08,23.46-12.08,18.33,0,23.51,4.64,23.51,12.47,0,3.26-.15,5.87-.15,9.47a33.78,33.78,0,0,0,.84,8.47h-8c-1.83,0-2.27-.24-2.27-2.41,0-1.18,0-2.61.1-4.09l-.3,0c-2.41,4.88-9.51,7.64-20.4,7.64-12.37,0-18.09-2.66-18.09-9,0-6.06,6.06-8.78,20.45-8.78,7.74,0,14,.35,18.19,1.14Zm-.05,5.23c-5.13-.49-10.84-.69-16.66-.69-9.12,0-12.66,1.28-12.66,3.74,0,2.62,3,3.9,12.17,3.9,11.14,0,17.15-3,17.15-6.71Z"/><path class="cls-1" d="M183.33,202.57c0-2.17-1.62-3.4-16.56-3.4-17.94,0-22.57-3.16-22.52-9.22s4.93-9.46,22.72-9.46c15.23,0,23.36,1.72,23.36,10.2,0,.34-.05.74-.05,1.13-.89,0-2.46-.1-3.89-.1-1.73,0-3.4.05-4.24.1a5,5,0,0,0,0-.84c0-3.1-3.35-4.38-15.43-4.38-11.58,0-14.24,1.13-14.24,3.3s1.57,3.25,17,3.4c18.39.1,21.88,2.61,21.88,9,0,6.75-5.71,9.86-23.46,9.86-18,0-24.29-3-24.29-10.16,0-.39.05-.83.05-1.23,1,.1,2.41.15,3.84.15a36.54,36.54,0,0,0,4.29-.15,2.24,2.24,0,0,0-.05.55c0,3.49,3.94,4.63,16.66,4.63C180.18,205.92,183.33,204.93,183.33,202.57Z"/><path class="cls-1" d="M236.6,202.57c0-2.17-1.62-3.4-16.56-3.4-17.94,0-22.57-3.16-22.52-9.22s4.93-9.46,22.72-9.46c15.23,0,23.36,1.72,23.36,10.2,0,.34,0,.74,0,1.13-.88,0-2.46-.1-3.89-.1-1.73,0-3.4.05-4.24.1a5,5,0,0,0,.05-.84c0-3.1-3.35-4.38-15.43-4.38-11.58,0-14.24,1.13-14.24,3.3s1.58,3.25,17,3.4c18.39.1,21.89,2.61,21.89,9,0,6.75-5.72,9.86-23.46,9.86-18,0-24.3-3-24.3-10.16,0-.39,0-.83,0-1.23,1,.1,2.41.15,3.84.15a36.45,36.45,0,0,0,4.29-.15,2.24,2.24,0,0,0-.05.55c0,3.49,3.94,4.63,16.66,4.63C233.45,205.92,236.6,204.93,236.6,202.57Z"/><path class="cls-1" d="M283.72,174.08c19.32,0,25.38,6.16,25.38,17.94,0,12.37-6.11,19-25.43,19H252.86c.15-5.17.15-10.59.15-18.43s0-13.5-.15-18.53ZM299,192.17c0-7.69-4.59-10.65-15.92-10.65-7.15,0-13.71,0-19.77.15-.05,3.6-.1,7.79-.1,11.19,0,4.38,0,7.64,0,10.4,7.3.39,12,.24,19.91.24C293.82,203.5,299,200,299,192.17Z"/><path class="cls-1" d="M339.21,212.42c-15.87,0-26.13-5-26.13-16.36s10.75-15.77,26.18-15.77,26.36,4.39,26.36,15.77S355.13,212.42,339.21,212.42Zm.05-25.48c-10.21,0-17.06,2.76-17.06,9.27s6.8,9.41,17.06,9.41,17.1-3.1,17.1-9.41S349.51,186.94,339.26,186.94Z"/><path class="cls-1" d="M383.36,189.85c2.32-5.81,7.84-8.77,15.28-8.72a30.84,30.84,0,0,1,10.2,1.62c-.34,1.93-.79,6.26-.89,8.38a26.43,26.43,0,0,0-10.64-1.77c-8.13,0-13.65,3-13.65,10,0,4.29,0,9.17.14,11.63H373.6c.1-4,.15-8.18.15-14.34,0-6.41,0-10.69-.15-15h9.66c-.05,2.56-.1,5.08-.19,8.13Z"/><path class="cls-1" d="M478.68,211c.14-3.84.14-9.41.14-15.37,0-4.93-3.15-7.5-10.25-7.5-6.85,0-12.66,2.81-12.66,9.76,0,5.62,0,9.52.19,13.11H447c.15-3.89.2-9,.2-15.42,0-4.88-3.15-7.45-10.3-7.45-6.9,0-12.62,2.86-12.62,9.66,0,6.56.05,10.75.1,13.21h-9.26c.14-4,.14-8.18.14-14.19,0-6.51,0-10.94-.14-15.18h9.56c-.1,2.37-.1,4.24-.3,6.75l.35.05c2.81-4.88,7.88-7.44,16.11-7.44,9.17,0,13.71,2.61,14.84,7.59l.39,0c2.71-5.47,8.38-7.64,16.51-7.64,11,0,15.18,4.34,15.18,12.17,0,3.6-.14,6.11-.14,9s.09,6.06.19,8.82Z"/></svg>