<svg id="レイヤー_1" data-name="レイヤー 1" xmlns="http://www.w3.org/2000/svg" viewBox="0 0 183.09 106.97"><defs><style>.cls-1{fill:#fff;}</style></defs><path class="cls-1" d="M128,96.49l-.71-.89-5.14-15.42h-1.3l-5.27,15.46-.7.85h2.64l-.7-.85,1.7-5.3h4.67l1.68,5.3-.7.85Zm-9.21-7,2.1-6.06,2,6.06Z"/><polygon class="cls-1" points="108.59 95.64 108.59 81.02 109.29 80.17 105.83 80.17 106.41 81.03 106.41 95.63 105.83 96.49 109.29 96.49 108.59 95.64"/><path class="cls-1" d="M168.31,96.49l-.72-.89-5.14-15.42h-1.3l-5.26,15.46-.71.85h2.65l-.7-.85,1.69-5.3h4.67l1.69,5.3-.7.85Zm-9.21-7,2.09-6.06,2,6.06Z"/><polygon class="cls-1" points="146.51 82.87 146.51 95.64 145.8 96.49 149.4 96.49 148.7 95.64 148.7 81.39 149.46 80.17 146.48 80.17 141.96 88.3 137.43 80.17 133.74 80.17 134.5 81.39 134.5 95.64 133.8 96.49 136.45 96.49 135.75 95.64 135.76 82.89 136.12 82.75 141.13 91.67 146.15 82.75 146.51 82.87"/><path class="cls-1" d="M181.55,88.48l-4-2.48a3.14,3.14,0,0,1-1.79-2.64,2.56,2.56,0,0,1,2.69-2.49,1.92,1.92,0,0,1,1.18.27h0l0,0,1.53,1.41,1.1-1.89-2.71-.57A8.49,8.49,0,0,0,178.3,80a5,5,0,0,0-3.43,1.33,4.06,4.06,0,0,0-1.15,3,4.57,4.57,0,0,0,2.16,3.78l4,2.48a2.56,2.56,0,0,1,1.25,2.22,3.37,3.37,0,0,1-.93,2.29,2.9,2.9,0,0,1-2.13.82,2.78,2.78,0,0,1-1.44-.36h0l0,0-1.67-1.62-1.1,2.1,2.87.58a5.36,5.36,0,0,0,1.19.11,4.85,4.85,0,0,0,5.22-5.11A3.38,3.38,0,0,0,181.55,88.48Z"/><path class="cls-1" d="M175.21,43.57c2.09,1.44,2.21,1.56,1.8,3.14a87.76,87.76,0,0,0-6.15,10.85c-2-6.19-3.77-15.68-4.81-24.51C169.58,39.7,173.05,42.08,175.21,43.57Z"/><path class="cls-1" d="M183.09,8.43V77.69H105.83V.43h77.26v4c-2.53-1.52-4.89-1.78-7-.77-5.63,2.67-8.26,13.13-10.17,20.76-.18.69-.34,1.34-.5,1.95-.14-1.89-.25-3.7-.31-5.37,1.13-4.94,2.06-8.72,2.54-10.17a2.16,2.16,0,0,0,.5-1.63c-.08-.94-.58-1.65-1.22-1.72h-.1c-1.26-.45-2.41.24-3.15,1.91-.94,2.11-1.28,6.22-1.16,11.32-.38,1.66-.78,3.46-1.2,5.37-1.88,8.45-3.81,17.66-5.22,24.82-1-8.24-2.34-18.47-3.67-26.82-2-12.65-3.18-15.41-4.26-16.19a1.8,1.8,0,0,0-.93-1.61c-.52-.23-1.26-.17-1.87,1.48a106.44,106.44,0,0,0-2.73,11.1c-1.7-6.34-3.18-9.59-5.06-9.59-1.56,0-3.22,1.63-6.12,20-1.49-4.79-2.76-9.4-3.62-13.12.9-4.22,1.15-7.26.55-9.14a3.17,3.17,0,0,0-1.57-2c-1.21-.5-2.23.29-2.59,1.94-.4,1.87.08,5.36.93,9.27-1.4,5.86-3.83,13.73-5.57,19.34-3.26,10.55-5.66,18.53-6.48,23.95-.67-8.7.6-26,1.3-35.45,1.11-15.07,1.11-16.36-.09-17.23a1.13,1.13,0,0,0-1.63.32,2.35,2.35,0,0,0-.11,2.55.94.94,0,0,0,.09.12c.06,2.13-.4,8.33-.81,13.87-1.67,22.63-2.66,40.22,1,43.83a2.3,2.3,0,0,0,3.15.21,2.06,2.06,0,0,0,.72-1.92,1.57,1.57,0,0,0-1.11-1.5l-.08,0C114.11,62.26,119,46.47,121.92,37c1.83-5.92,3.38-11,4.53-15.3,1.63,6.15,3.56,12,3.94,13.13l.15.41c-1.85,12.8-3.49,27.26-4.47,36l-.14,1.23A1.81,1.81,0,0,0,127,74.54c.7.16,1.36-.51,1.47-1.49l.14-1.24c1.46-12.94,2.73-23.15,3.82-31.17a113.79,113.79,0,0,0,5.64,13.18c.19,4.42,1.14,5.42,1.64,6,1.19,1.25,2.54.78,3.69-.13,1,0,2.08-.88,2.64-3.28a2.2,2.2,0,0,0-.54-2.08,1,1,0,0,0-1.57.22c-.39.52-.73.93-1,1.26a12.48,12.48,0,0,1-2.35-3.32c0-4.92,1.06-13,2.37-20.92l.72,3.28c4,18,6.75,29.48,10.57,31.47a1.91,1.91,0,0,0,.36.33,1,1,0,0,0,1.2,0,1.2,1.2,0,0,0,.66.7A1.05,1.05,0,0,0,157.7,67a2.34,2.34,0,0,0,.21-2.52c-.16-.75-.44-2.69-.77-5.19,1.23-6.85,3.68-18.83,5.94-29.23,1.14,11.56,3.7,24.76,6.58,31.93a5.55,5.55,0,0,0,.19,1.67A3.6,3.6,0,0,0,171.79,66l.09.12c1.52,1.86,3.18,2,4.57.34a2.28,2.28,0,0,0,.4-1.93,1.47,1.47,0,0,0-1.12-1.25,13.85,13.85,0,0,1-2.59-.48,11.35,11.35,0,0,1-.82-1.46c.4-1.5,2-4.88,6.77-12.49a2,2,0,0,0,.25-.58c1.3-5-.89-6.49-3-7.94s-5.56-3.83-9-10.95c.31-1.08.62-2.33,1-3.72,1.64-6.54,4.12-16.43,8.57-18.54C178.66,6.28,180.74,6.71,183.09,8.43Z"/><path class="cls-1" d="M139.94,33.45c-1,6.06-1.49,10.7-1.74,14.25-1.71-3.8-3.41-8.28-5-12.84,2.16-14.88,3.55-20.35,4.43-21.79,1,1.11,2.4,6.24,3.75,11.9C140.89,27.74,140.39,30.61,139.94,33.45Z"/><path class="cls-1" d="M154.07,61.88c-2.67-4-5.81-18.25-8-28.15-.72-3.29-1.38-6.25-2-8.88,1-5.51,2.08-10.36,2.85-13.21a.73.73,0,0,0,.2-.05c1.91,4.43,4.93,28.26,6.42,40,.39,3.13.71,5.6,1,7.57C154.33,60.23,154.18,61.13,154.07,61.88Z"/><path class="cls-1" d="M10.61,84.14h1.17l-1.63,12H9.89L3.14,86.89,1.87,96.18H.68l1.63-12h.26l6.77,9.3Z"/><path class="cls-1" d="M12.93,87.27h1.31l2.14,3.49,2.56-3.49h1.37L17,91.79l2.7,4.39H18.4l-2.1-3.43-2.51,3.43H12.41l3.26-4.45Z"/><path class="cls-1" d="M22.85,84.14h3.28a6.49,6.49,0,0,1,2.33.3,2.47,2.47,0,0,1,1.13,1A2.91,2.91,0,0,1,30,87a3.36,3.36,0,0,1-2.35,3.26,9.77,9.77,0,0,1-2.63.24H23.21l-.77,5.69H21.22Zm1.07,1.16-.56,4H25a7.76,7.76,0,0,0,2.34-.23,2.06,2.06,0,0,0,1-.8,2.12,2.12,0,0,0,.4-1.26,1.71,1.71,0,0,0-.27-1,1.39,1.39,0,0,0-.74-.56,6,6,0,0,0-1.73-.17Z"/><path class="cls-1" d="M43.34,85.8l-.73,1A6.18,6.18,0,0,0,38.25,85a6.07,6.07,0,0,0-3,.77,5.69,5.69,0,0,0-2.17,2.1,5.5,5.5,0,0,0-.78,2.84,4.75,4.75,0,0,0,.6,2.4,4.18,4.18,0,0,0,1.74,1.64,5.45,5.45,0,0,0,2.6.59,6.94,6.94,0,0,0,4.17-1.41l.67,1a10.87,10.87,0,0,1-2.47,1.26,7.78,7.78,0,0,1-2.38.33,6.32,6.32,0,0,1-4.07-1.26,5.45,5.45,0,0,1-2.08-4.48,6.55,6.55,0,0,1,2.08-4.9,7.18,7.18,0,0,1,5.19-2,7.27,7.27,0,0,1,2.58.44A8.27,8.27,0,0,1,43.34,85.8Z"/><path class="cls-1" d="M45.42,94.41a1,1,0,0,1,.71.3,1,1,0,0,1-.71,1.7,1,1,0,0,1-.71-.29,1,1,0,0,1,0-1.41A.94.94,0,0,1,45.42,94.41Z"/><path class="cls-1" d="M50.56,84.14h1.21L50.28,95h5.21l-.14,1.14H48.93Z"/><path class="cls-1" d="M65.11,96.18H64l.18-1.34a4.82,4.82,0,0,1-3.53,1.57,4,4,0,0,1-4.14-4.18A5,5,0,0,1,58,88.57a4.89,4.89,0,0,1,3.57-1.52,4,4,0,0,1,2,.46A3.75,3.75,0,0,1,64.92,89l.21-1.7h1.18Zm-4.38-.82a3.9,3.9,0,0,0,2-.52,3.69,3.69,0,0,0,1.44-1.49,4.41,4.41,0,0,0,.53-2.12A3,3,0,0,0,63.83,89a3.09,3.09,0,0,0-2.27-.87,3.82,3.82,0,0,0-2.81,1.19,4,4,0,0,0-1.16,2.91,3.07,3.07,0,0,0,.87,2.28A3,3,0,0,0,60.73,95.36Z"/><path class="cls-1" d="M69.52,83.84h1.16L70,88.62a4.85,4.85,0,0,1,3.54-1.57,4,4,0,0,1,3,1.17,4.06,4.06,0,0,1,1.16,3,5,5,0,0,1-1.51,3.65,4.86,4.86,0,0,1-3.57,1.53,3.7,3.7,0,0,1-3.39-1.93L69,96.18H67.85Zm3.93,4.25a4.07,4.07,0,0,0-2,.52A3.72,3.72,0,0,0,70,90.11a4.31,4.31,0,0,0-.54,2.12,3.05,3.05,0,0,0,.88,2.25,3.11,3.11,0,0,0,2.27.87,3.8,3.8,0,0,0,2.81-1.19,4,4,0,0,0,1.17-2.92,3,3,0,0,0-3.14-3.15Z"/><polygon class="cls-1" points="58.6 78.52 75.19 0 19.28 0 58.37 78.52 58.6 78.52"/><polygon class="cls-1" points="0 0 0 69.5 14.7 0 0 0"/><polygon class="cls-1" points="79.07 0 77.63 0 60.69 79.07 79.07 79.07 79.07 0"/><polygon class="cls-1" points="16.76 0.65 0.3 79.07 56.03 79.07 16.99 0.65 16.76 0.65"/></svg>