<svg id="レイヤー_1" data-name="レイヤー 1" xmlns="http://www.w3.org/2000/svg" viewBox="0 0 120.61 91.61"><defs><style>.cls-1{fill:#d2c5ce;}.cls-2{fill:#040000;}</style></defs><path class="cls-1" d="M71.93,17.42H49.26a2.47,2.47,0,0,0-2.15,1.24L35.78,38.29a2.45,2.45,0,0,0,0,2.48L47.11,60.4a2.47,2.47,0,0,0,2.15,1.24H71.93a2.47,2.47,0,0,0,2.14-1.24L85.4,40.77a2.45,2.45,0,0,0,0-2.48L74.07,18.66A2.47,2.47,0,0,0,71.93,17.42Z"/><circle class="cls-2" cx="60.59" cy="39.53" r="19.22"/><circle class="cls-1" cx="60.59" cy="39.53" r="15.77"/><circle class="cls-2" cx="60.59" cy="39.53" r="12.33"/><path class="cls-1" d="M60.3,91.61A15.18,15.18,0,0,1,51.76,89L6.68,58.41a15.23,15.23,0,0,1,0-25.21L51.76,2.64a15.15,15.15,0,0,1,17.09,0L113.93,33.2a15.23,15.23,0,0,1,0,25.21L68.85,89A15.19,15.19,0,0,1,60.3,91.61ZM53,87.1a12.9,12.9,0,0,0,14.55,0l45.08-30.56a13,13,0,0,0,0-21.47L67.58,4.51A12.89,12.89,0,0,0,53,4.51L8,35.07A13,13,0,0,0,8,56.54Z"/><path class="cls-1" d="M42.06,66.44a.38.38,0,1,1,.75,0,.39.39,0,0,1-.37.41A.39.39,0,0,1,42.06,66.44Zm0,.79a.38.38,0,1,1,.75,0,.39.39,0,0,1-.37.4A.38.38,0,0,1,42.06,67.23Zm0,.77a.38.38,0,0,1,.75,0,.39.39,0,0,1-.37.42A.39.39,0,0,1,42.06,68Zm0,.79a.38.38,0,0,1,.75,0,.39.39,0,0,1-.37.4A.38.38,0,0,1,42.06,68.79Zm0,.78a.37.37,0,0,1,.38-.38.37.37,0,0,1,.37.38.39.39,0,0,1-.37.41A.39.39,0,0,1,42.06,69.57Zm0,.79a.38.38,0,1,1,.75,0,.39.39,0,0,1-.37.4A.38.38,0,0,1,42.06,70.36Zm0,.77a.38.38,0,0,1,.75,0,.38.38,0,1,1-.75,0Zm0,.78a.38.38,0,0,1,.38-.4.39.39,0,0,1,.37.4.38.38,0,1,1-.75,0Zm0,.79a.38.38,0,0,1,.38-.41.39.39,0,0,1,.37.41.37.37,0,0,1-.37.38A.37.37,0,0,1,42.06,72.7Zm0,.78a.38.38,0,0,1,.38-.4.38.38,0,0,1,.37.4.38.38,0,0,1-.75,0Zm0,.79a.39.39,0,0,1,.38-.42.39.39,0,0,1,.37.42.38.38,0,0,1-.75,0Zm0,.77a.38.38,0,0,1,.38-.4.39.39,0,0,1,.37.4.38.38,0,1,1-.75,0Zm.75-7.81a.38.38,0,0,1,.4-.38.36.36,0,0,1,.38.38.38.38,0,0,1-.38.4A.41.41,0,0,1,42.81,67.23Zm.78.77a.39.39,0,0,1,.41-.37.37.37,0,0,1,.38.37.4.4,0,0,1-.38.42A.42.42,0,0,1,43.59,68Zm.79.79a.38.38,0,0,1,.4-.37.35.35,0,0,1,.38.37.38.38,0,0,1-.38.4A.41.41,0,0,1,44.38,68.79Zm.78.78a.39.39,0,0,1,.41-.38.38.38,0,0,1,.38.38.4.4,0,0,1-.38.41A.41.41,0,0,1,45.16,69.57Zm.79.79a.38.38,0,0,1,.4-.38.35.35,0,0,1,.37.38.38.38,0,0,1-.37.4A.41.41,0,0,1,46,70.36Zm.77-.79a.4.4,0,0,1,.42-.38.37.37,0,0,1,.37.38.39.39,0,0,1-.37.41A.42.42,0,0,1,46.72,69.57Zm.79-.78a.38.38,0,0,1,.4-.37.35.35,0,0,1,.38.37.38.38,0,0,1-.38.4A.41.41,0,0,1,47.51,68.79Zm.78-.79a.39.39,0,0,1,.41-.37.38.38,0,0,1,.38.37.4.4,0,1,1-.79,0Zm.79-.77a.38.38,0,0,1,.4-.38.37.37,0,0,1,.37.38.4.4,0,0,1-.37.4A.41.41,0,0,1,49.08,67.23Zm.77-.79a.39.39,0,0,1,.38-.38.39.39,0,0,1,.41.38.42.42,0,0,1-.41.41A.41.41,0,0,1,49.85,66.44Zm0,.79a.38.38,0,0,1,.38-.38.39.39,0,0,1,.41.38.42.42,0,0,1-.41.4A.41.41,0,0,1,49.85,67.23Zm0,.77a.38.38,0,0,1,.38-.37.39.39,0,0,1,.41.37.4.4,0,1,1-.79,0Zm0,.79a.38.38,0,0,1,.38-.37.39.39,0,0,1,.41.37.42.42,0,0,1-.41.4A.41.41,0,0,1,49.85,68.79Zm0,.78a.39.39,0,0,1,.38-.38.4.4,0,0,1,.41.38.42.42,0,0,1-.41.41A.41.41,0,0,1,49.85,69.57Zm0,.79a.38.38,0,0,1,.38-.38.39.39,0,0,1,.41.38.42.42,0,0,1-.41.4A.41.41,0,0,1,49.85,70.36Zm0,.77a.38.38,0,0,1,.38-.37.39.39,0,0,1,.41.37.39.39,0,0,1-.41.38A.39.39,0,0,1,49.85,71.13Zm0,.78a.41.41,0,0,1,.38-.4.42.42,0,0,1,.41.4.39.39,0,0,1-.41.38A.38.38,0,0,1,49.85,71.91Zm0,.79a.41.41,0,0,1,.38-.41.41.41,0,0,1,.41.41.4.4,0,0,1-.41.38A.39.39,0,0,1,49.85,72.7Zm0,.78a.4.4,0,0,1,.38-.4.41.41,0,0,1,.41.4.39.39,0,0,1-.41.37A.38.38,0,0,1,49.85,73.48Zm0,.79a.4.4,0,1,1,.79,0,.39.39,0,0,1-.41.37A.38.38,0,0,1,49.85,74.27Zm0,.77a.41.41,0,0,1,.38-.4.42.42,0,0,1,.41.4.39.39,0,0,1-.41.38A.38.38,0,0,1,49.85,75Z"/><path class="cls-1" d="M52.22,71.13a.35.35,0,0,1,.37-.37.36.36,0,0,1,.38.37.37.37,0,0,1-.38.38A.36.36,0,0,1,52.22,71.13Zm0,.78a.38.38,0,0,1,.37-.4.39.39,0,0,1,.38.4.36.36,0,0,1-.38.38A.35.35,0,0,1,52.22,71.91Zm0,.79a.38.38,0,0,1,.37-.41.39.39,0,0,1,.38.41.37.37,0,0,1-.38.38A.37.37,0,0,1,52.22,72.7Zm0,.78a.38.38,0,0,1,.37-.4.38.38,0,0,1,.38.4.36.36,0,0,1-.38.37A.35.35,0,0,1,52.22,73.48ZM53,70.36a.38.38,0,0,1,.4-.38.36.36,0,0,1,.38.38.38.38,0,0,1-.38.4A.41.41,0,0,1,53,70.36Zm0,1.55a.41.41,0,0,1,.4-.4.38.38,0,0,1,.38.4.36.36,0,0,1-.38.38A.38.38,0,0,1,53,71.91Zm0,2.36a.42.42,0,0,1,.4-.42.39.39,0,0,1,.38.42.36.36,0,0,1-.38.37A.39.39,0,0,1,53,74.27Zm.78-4.7a.39.39,0,0,1,.41-.38.38.38,0,0,1,.38.38.4.4,0,0,1-.38.41A.41.41,0,0,1,53.75,69.57Zm0,2.34a.41.41,0,0,1,.41-.4.4.4,0,0,1,.38.4.37.37,0,0,1-.38.38A.38.38,0,0,1,53.75,71.91Zm0,3.13a.41.41,0,0,1,.41-.4.4.4,0,0,1,.38.4.37.37,0,0,1-.38.38A.38.38,0,0,1,53.75,75Zm.79-5.47a.39.39,0,0,1,.4-.38.37.37,0,0,1,.37.38.39.39,0,0,1-.37.41A.41.41,0,0,1,54.54,69.57Zm0,2.34a.41.41,0,0,1,.4-.4.38.38,0,0,1,.37.4.35.35,0,0,1-.37.38A.38.38,0,0,1,54.54,71.91Zm0,3.13a.41.41,0,0,1,.4-.4.38.38,0,0,1,.37.4.35.35,0,0,1-.37.38A.38.38,0,0,1,54.54,75Zm.77-5.47a.4.4,0,0,1,.42-.38.37.37,0,0,1,.37.38.39.39,0,0,1-.37.41A.42.42,0,0,1,55.31,69.57Zm0,2.34a.42.42,0,0,1,.42-.4.39.39,0,0,1,.37.4.36.36,0,0,1-.37.38A.39.39,0,0,1,55.31,71.91Zm0,3.13a.42.42,0,0,1,.42-.4.39.39,0,0,1,.37.4.36.36,0,0,1-.37.38A.39.39,0,0,1,55.31,75Zm.79-4.68a.38.38,0,0,1,.4-.38.36.36,0,0,1,.38.38.38.38,0,0,1-.38.4A.41.41,0,0,1,56.1,70.36Zm0,1.55a.41.41,0,0,1,.4-.4.38.38,0,0,1,.38.4.36.36,0,0,1-.38.38A.38.38,0,0,1,56.1,71.91Zm0,3.13a.41.41,0,0,1,.4-.4.38.38,0,0,1,.38.4.36.36,0,0,1-.38.38A.38.38,0,0,1,56.1,75Zm.78-3.91a.39.39,0,0,1,.41-.37.37.37,0,0,1,.38.37.37.37,0,0,1-.38.38A.39.39,0,0,1,56.88,71.13Zm0,.78a.42.42,0,0,1,.41-.4.4.4,0,0,1,.38.4.37.37,0,0,1-.38.38A.39.39,0,0,1,56.88,71.91Zm0,3.13a.42.42,0,0,1,.41-.4.4.4,0,0,1,.38.4.37.37,0,0,1-.38.38A.39.39,0,0,1,56.88,75Z"/><path class="cls-1" d="M60.5,69.57a.37.37,0,0,1,.37-.38.38.38,0,0,1,.38.38.4.4,0,0,1-.38.41A.39.39,0,0,1,60.5,69.57Zm0,.79a.35.35,0,0,1,.37-.38.37.37,0,0,1,.38.38.4.4,0,0,1-.38.4A.38.38,0,0,1,60.5,70.36Zm0,.77a.35.35,0,0,1,.37-.37.37.37,0,0,1,.38.37.37.37,0,0,1-.38.38A.36.36,0,0,1,60.5,71.13Zm0,.78a.38.38,0,0,1,.37-.4.4.4,0,0,1,.38.4.37.37,0,0,1-.38.38A.35.35,0,0,1,60.5,71.91Zm0,.79a.38.38,0,0,1,.37-.41.39.39,0,0,1,.38.41.38.38,0,0,1-.38.38A.37.37,0,0,1,60.5,72.7Zm0,.78a.38.38,0,0,1,.37-.4.39.39,0,0,1,.38.4.37.37,0,0,1-.38.37A.35.35,0,0,1,60.5,73.48Zm0,.79a.39.39,0,0,1,.37-.42.4.4,0,0,1,.38.42.37.37,0,0,1-.38.37A.36.36,0,0,1,60.5,74.27Zm0,.77a.38.38,0,0,1,.37-.4.4.4,0,0,1,.38.4.37.37,0,0,1-.38.38A.35.35,0,0,1,60.5,75Zm.75-5.47a.4.4,0,0,1,.4-.38.37.37,0,0,1,.38.38.39.39,0,0,1-.38.41A.42.42,0,0,1,61.25,69.57Zm.78,0a.39.39,0,0,1,.41-.38.37.37,0,0,1,.37.38.39.39,0,0,1-.37.41A.41.41,0,0,1,62,69.57Zm.78,0a.4.4,0,0,1,.4-.38.37.37,0,0,1,.38.38.39.39,0,0,1-.38.41A.42.42,0,0,1,62.81,69.57Zm.78,0a.4.4,0,0,1,.41-.38.37.37,0,0,1,.38.38A.39.39,0,0,1,64,70,.42.42,0,0,1,63.59,69.57Zm.79.79a.38.38,0,0,1,.4-.38.36.36,0,0,1,.38.38.38.38,0,0,1-.38.4A.41.41,0,0,1,64.38,70.36Zm.78.77a.38.38,0,0,1,.41-.37.37.37,0,0,1,.38.37.37.37,0,0,1-.38.38A.39.39,0,0,1,65.16,71.13Zm0,.78a.41.41,0,0,1,.41-.4.4.4,0,0,1,.38.4.37.37,0,0,1-.38.38A.38.38,0,0,1,65.16,71.91Zm0,.79a.41.41,0,0,1,.41-.41.39.39,0,0,1,.38.41.38.38,0,0,1-.38.38A.39.39,0,0,1,65.16,72.7Zm0,.78a.4.4,0,0,1,.41-.4.39.39,0,0,1,.38.4.37.37,0,0,1-.38.37A.38.38,0,0,1,65.16,73.48Zm0,.79a.41.41,0,0,1,.41-.42.4.4,0,0,1,.38.42.37.37,0,0,1-.38.37A.39.39,0,0,1,65.16,74.27Zm0,.77a.41.41,0,0,1,.41-.4A.4.4,0,0,1,66,75a.37.37,0,0,1-.38.38A.38.38,0,0,1,65.16,75Z"/><path class="cls-1" d="M69.53,69.57a.4.4,0,0,1-.38.41.39.39,0,0,1-.38-.41.37.37,0,0,1,.38-.38A.38.38,0,0,1,69.53,69.57Zm0,.79a.4.4,0,0,1-.38.4.38.38,0,0,1-.38-.4.36.36,0,0,1,.38-.38A.37.37,0,0,1,69.53,70.36Zm0,.77a.37.37,0,0,1-.38.38.36.36,0,0,1-.38-.38.35.35,0,0,1,.38-.37A.37.37,0,0,1,69.53,71.13Zm0,.78a.37.37,0,0,1-.38.38.36.36,0,0,1-.38-.38.38.38,0,0,1,.38-.4A.4.4,0,0,1,69.53,71.91Zm0,.79a.38.38,0,0,1-.38.38.37.37,0,0,1-.38-.38.38.38,0,0,1,.38-.41A.39.39,0,0,1,69.53,72.7Zm0,.78a.37.37,0,0,1-.38.37.35.35,0,0,1-.38-.37.38.38,0,0,1,.38-.4A.39.39,0,0,1,69.53,73.48Zm.77.79a.36.36,0,0,1-.37.37.38.38,0,0,1-.4-.37.41.41,0,0,1,.4-.42A.39.39,0,0,1,70.3,74.27Zm.79.77a.36.36,0,0,1-.37.38A.39.39,0,0,1,70.3,75a.42.42,0,0,1,.42-.4A.39.39,0,0,1,71.09,75Zm.78,0a.36.36,0,0,1-.38.38.38.38,0,0,1-.4-.38.41.41,0,0,1,.4-.4A.38.38,0,0,1,71.87,75Zm.79,0a.37.37,0,0,1-.38.38.39.39,0,0,1-.41-.38.42.42,0,0,1,.41-.4A.4.4,0,0,1,72.66,75Zm.77,0a.35.35,0,0,1-.37.38.38.38,0,0,1-.4-.38.41.41,0,0,1,.4-.4A.38.38,0,0,1,73.43,75Zm.79-5.47a.39.39,0,0,1-.37.41.42.42,0,0,1-.42-.41.4.4,0,0,1,.42-.38A.37.37,0,0,1,74.22,69.57Zm0,.79a.39.39,0,0,1-.37.4.42.42,0,0,1-.42-.4.39.39,0,0,1,.42-.38A.36.36,0,0,1,74.22,70.36Zm0,.77a.37.37,0,0,1-.37.38.4.4,0,0,1-.42-.38.39.39,0,0,1,.42-.37A.36.36,0,0,1,74.22,71.13Zm0,.78a.36.36,0,0,1-.37.38.39.39,0,0,1-.42-.38.42.42,0,0,1,.42-.4A.39.39,0,0,1,74.22,71.91Zm0,.79a.37.37,0,0,1-.37.38.4.4,0,0,1-.42-.38.41.41,0,0,1,.42-.41A.39.39,0,0,1,74.22,72.7Zm0,.78a.36.36,0,0,1-.37.37.39.39,0,0,1-.42-.37.41.41,0,0,1,.42-.4A.38.38,0,0,1,74.22,73.48Zm0,.79a.36.36,0,0,1-.37.37.39.39,0,0,1-.42-.37.42.42,0,0,1,.42-.42A.39.39,0,0,1,74.22,74.27Zm0,.77a.36.36,0,0,1-.37.38.39.39,0,0,1-.42-.38.42.42,0,0,1,.42-.4A.39.39,0,0,1,74.22,75Z"/></svg>