<svg id="レイヤー_1" data-name="レイヤー 1" xmlns="http://www.w3.org/2000/svg" viewBox="0 0 977.66 570.77"><defs><style>.cls-1{fill:#aced0c;}.cls-2{fill:#fff;}</style></defs><path class="cls-1" d="M128.87,7.47c-.28,8.73-.37,20-.37,34.72,0,15.23,0,25.53.19,34.91H109.1C102.6,70.5,71,48.69,50.8,34.4c-4.08-2.88-8.26-5.85-11.6-8.73.37,5.29.46,10.86.65,16.52,0,17.45.09,29.8.37,34.91H22.12c0-9.29.28-20,.28-34.82s0-25.43-.28-34.81H44.77c4.92,5.2,39.64,29.71,57.74,42.43,3.62,2.41,7.15,4.54,9.84,7.05-.37-5-.46-10-.46-14.2,0-15.69-.29-29.61-.66-35.28Z"/><path class="cls-1" d="M231.9,21.77c-8.73,7-19.68,17.17-31.84,27.48C213,59.74,226,70.78,233.38,77.1H209.16c-5.11-5-10.4-9-17.18-15a111.87,111.87,0,0,1-8.82-8.17h-.37c-2.13,2.23-5.1,4.92-9,8.45-7,6.12-12.26,10.21-16.71,14.76h-23.3c7.7-6.32,20.89-17.55,33.79-28-12.26-10.12-23.49-20.24-32.3-27.29h24.59C165,27,171.47,32.26,178,37.92c3.16,2.79,5.2,4.92,7,6.69h.37c1.67-1.86,3.8-3.81,6.87-6.69,6.59-5.85,13.09-11.42,17.82-16.15Z"/><path class="cls-1" d="M304.62,7.47c23.77,0,37.13,4.93,37.13,25.44,0,19.68-12.44,27.2-37.22,27.2-14.95,0-25.16.18-45-.28.09,6.68.37,12.53.74,17.27H239.92c.28-10.12.37-20,.37-34.82s-.09-25.06-.37-34.81Zm18.2,26.09C322.82,23.81,316.88,21,301,21c-8.72,0-31.75,0-41.68.28V46.18c6.87,0,24,.19,41.4.19C317.25,46.37,322.82,42.84,322.82,33.56Z"/><path class="cls-1" d="M444.44,35.23c0-9.84-11.69-14.57-37.5-14.57-26.36.46-39.63,6.68-39.63,20.88,0,13.93,14,21.72,40.65,21.72,26.92,0,36.39-5,36.39-14.29v-2c3.16.09,6.41.09,9.66.09s6.4,0,9.56-.09c0,.93.09,1.85.09,2.87,0,16.81-12.16,28.78-55.7,28.78-40.47,0-60.34-11.7-60.34-36.67C347.62,16,371.3,6,406.94,6s56.53,6.68,56.53,27.11c0,1.2,0,2.5-.09,3.71-3.06-.19-6.31-.19-9.47-.19s-6.31,0-9.47.19Z"/><path class="cls-1" d="M492.39,67.26c0,6.87-3.81,10.49-10.77,10.49s-10.68-3.62-10.68-10.49S474.84,57,481.62,57,492.39,60.48,492.39,67.26Z"/><path class="cls-1" d="M522.7,7.47c-.28,5.67-.46,18.94-.56,34.81,0,6.32,0,13.09.1,18.85,17.45,0,42.42.19,62.75-.28,0,2.6-.09,5.38-.09,8.08s.09,5.47.09,8.17H502.74c.1-8,.38-20,.38-34.82,0-15.68-.1-28-.38-34.81Z"/><path class="cls-1" d="M604.52,15.83c-9.65,0-11.32-2.6-11.32-5.76S595,4.6,604.52,4.6s11.24,2.22,11.24,5.47S614.09,15.83,604.52,15.83ZM595.15,77.1c.37-9.94.37-17.18.37-28.5,0-10.87-.09-17.08-.37-26.83h18.47c-.37,9.65-.27,15.69-.27,27.29,0,11.88-.1,18,.27,28Z"/><path class="cls-1" d="M726.2,21.77C714,37.55,691.86,67.07,685.08,77.1c-3.06-.1-6.59-.1-11.51-.1-5.29,0-9.66,0-11.42.1-8-11.14-29.43-39.64-42-55.33h23.11c4.55,7.43,14.39,19.49,20.52,28.68,4.92,7.24,7.8,12,9.93,15.69,2.32-3.8,5.48-8.91,10.31-15.78,6.59-9.84,15.4-21.91,19.68-28.59Z"/><path class="cls-1" d="M738.72,53.24c1.95,10,12.16,14.57,32.67,14.57,21.63,0,27.48-4.73,27.66-9.84a83.7,83.7,0,0,0,8.92.28,60.35,60.35,0,0,0,7.7-.28c.65,13.18-7.52,21.72-44.46,21.72-32.31,0-49.58-9.56-49.58-30.81,0-20.24,17.73-29.43,49.67-29.43,32.4,0,44.56,8.73,44.56,25.06a87.82,87.82,0,0,1-.37,8.91c-9-.27-24.32-.18-43.54-.18Zm0-8.26c18.84.37,45.3.46,60.52,0a11.67,11.67,0,0,0,.09-1.77c0-7.7-8-12.53-27.94-12.53C749.39,30.68,740.48,35,738.72,45Z"/><path class="cls-1" d="M122.85,120.14C110.52,136,88.3,165.71,81.48,175.8c-3.08-.09-6.63-.09-11.58-.09-5.32,0-9.71,0-11.49.09-8-11.21-29.6-39.88-42.3-55.66H39.36C43.93,127.61,53.83,139.75,60,149c5,7.28,7.84,12,10,15.78,2.34-3.83,5.51-9,10.37-15.88,6.63-9.9,15.5-22,19.79-28.76Z"/><path class="cls-1" d="M165.61,178.41c-30.07,0-49.49-9.52-49.49-31s20.35-29.88,49.59-29.88,50,8.3,50,29.88S195.78,178.41,165.61,178.41Zm.1-48.28c-19.33,0-32.32,5.23-32.32,17.56s12.89,17.84,32.32,17.84,32.4-5.89,32.4-17.84S185.13,130.13,165.71,130.13Z"/><path class="cls-1" d="M221.86,175.8c.28-12.42.28-22.13.28-35.4,0-14.84,0-23.34-.28-36.89h18.59c-.47,13.27-.38,21.86-.38,37.64,0,13.73-.09,22.32.38,34.65Z"/><path class="cls-1" d="M268.66,165.9c0,6.91-3.83,10.55-10.83,10.55s-10.74-3.64-10.74-10.55,3.92-10.37,10.74-10.37S268.66,159.08,268.66,165.9Z"/><path class="cls-1" d="M276.39,154a76.39,76.39,0,0,0,8.69.37,82.51,82.51,0,0,0,9.06-.37,5.37,5.37,0,0,0-.1,1.21c0,5.51,7.85,8,32.88,8,24.46,0,32-3.08,32-10.18,0-7.28-8.31-10.64-31.1-10.64-16.9,0-28.39,1.87-33,6.16A92.61,92.61,0,0,0,277.33,147c.28-4.76.28-13.44.28-19.7,0-8.13,0-16.9-.56-21.57,14.94.18,25.4.18,45,.18,21.29,0,34,0,51.36-.18-.18,2-.18,3.92-.18,7.56,0,3.27.09,4.39.18,7.19-10.08-.56-32.87-.46-40.25-.46-9.8,0-24.93-.1-38.94.18-.09,3.18,0,6.73,0,10.18,0,2.52,0,5.23.09,7.85,9.06-4.39,21.2-6,38.11-6,30.44,0,44.07,5.88,44.07,21.48,0,16.25-16.81,23.53-50,23.53-38.19,0-50.15-6.91-50.15-20.73Z"/><path class="cls-1" d="M476.55,105.76c-.19,2.24-.19,6.25-.19,8.87,0,4.76,0,7.47.19,8.87-22.79,14.66-41.46,33.44-43.05,52.3-3.27,0-7.66-.19-11.58-.19-4.86,0-8.88.1-12.33.19,1.49-20.83,24.47-41.56,46.51-53-23.16,0-51.93.09-74.34.09.28-2.89.28-5.7.28-8.78,0-2.8,0-5.51-.28-8.4Z"/><path class="cls-2" d="M203,262.19c0-17-11.75-23.07-72.16-23.07-56,0-69,5.66-69,17.2,0,11.32,7.34,15.94,81.39,18.67,83.49,3.14,108.66,14.05,108.66,48.45,0,35.66-30.21,52-115.79,52-85.8,0-120-13.43-120-48.25a112.28,112.28,0,0,1,.63-11.54,216.73,216.73,0,0,0,21.82,1.05c8.17,0,15.93,0,21.81-.42a26.71,26.71,0,0,0-.21,4.19c0,17.41,19.3,23.29,75.3,23.29,60,0,73.21-6.3,73.21-18.46,0-13.21-10.69-17.2-78.45-18.88C40.44,304.14,18.84,290.09,18.84,259c0-32.51,30-50.13,112.64-50.13,86.42,0,114.32,12,114.32,48.88,0,3.14,0,6.29-.21,9.85-4.82-.42-13-.42-21.18-.42-8.61,0-17,0-21.4.42Z"/><path class="cls-2" d="M309.36,275.41c12.8-21.61,42.79-32.52,85.38-32.52,61.46,0,92.5,23.08,92.5,65,0,42.16-34.61,65.86-92.71,65.86-43,0-70.48-12.16-84.33-25.59l-1.47.43c.63,8.59.42,16.35.42,24.54,0,10.27.21,20.55.42,32.3H267.2c.63-28.11.63-74.68.63-106.14,0-21,0-41.11-.42-53.49h41.95c0,4.4-.21,8.18-.21,12.17,0,4.4-.21,9.86-.42,17.2Zm-1.05,55.16c18.46,10.7,43.22,14.69,73.63,14.69,44.47,0,65.24-13,65.24-37.34,0-24.13-21.82-36.29-62.93-36.29-42.16,0-75.94,13.64-75.94,42.58Z"/><path class="cls-2" d="M524.32,232.4c-21.82,0-25.6-5.87-25.6-13,0-7.34,4-12.38,25.6-12.38,21.39,0,25.37,5,25.37,12.38C549.69,226.53,545.92,232.4,524.32,232.4ZM503.13,370.85c.83-22.44.83-38.81.83-64.4,0-24.54-.21-38.59-.83-60.62h41.74c-.84,21.81-.63,35.45-.63,61.67,0,26.85-.21,40.69.63,63.35Z"/><path class="cls-2" d="M743.49,370.85c.42-13.22.63-34.19.63-55.38,0-30.83-15.73-42.16-58.31-42.16-38.6,0-69.44,14.26-69.44,47,0,27.06.21,41.12.42,50.56h-43c.62-16.57.62-31.26.62-60.21,0-27.68-.21-46.56-.62-64.81h43.63c-.42,12.17-.64,21-1.27,33.56l1.27.21c12.58-26,40.9-37.55,85.79-37.55,52.86,0,83.28,18.25,83.28,63.35,0,12-.42,20.14-.42,28.74,0,12.38,0,24.54.83,36.71Z"/><path class="cls-2" d="M241.18,403.58c-.21,3.56-.21,9.23-.21,14.26,0,5.25,0,11.12.21,14.47-53.07-.42-131.31-.63-175.15-.63V468.6c52.23,0,130.26-.21,172.42-.63,0,6.51-.21,19.51,0,26.44-41.74-.21-120.82-.63-172.42-.63V530.7c43.84,0,124.39-.21,175.15-.63-.21,4-.21,10.07-.21,15.52,0,5.24,0,11.33.21,15.31H20.93c.84-21,.84-45.1.84-78.66,0-33.36,0-57.9-.84-78.66Z"/><path class="cls-2" d="M475.5,486c-4.4-.21-11.95-.21-19.51-.21-7.13,0-13.63,0-17.62.21a13.77,13.77,0,0,0-.21-2.93c-1.89-14.06-15.73-23.92-66.28-23.92-47.83,0-71.32,13-71.32,38.18,0,25.59,23.49,39.23,72.15,39.23,47.42,0,64-9,65.66-23.92a15.74,15.74,0,0,0,.21-3.14c5,.42,11.33.63,18,.63,7.14,0,14.27-.21,19.72-.63a11.05,11.05,0,0,1,.21,2.72c0,30.84-22.86,54.54-105.09,54.54-71.53,0-109.92-24.75-109.92-68.8,0-44.68,38.39-67.12,110.13-67.12,68.38,0,103.83,11.53,103.83,52Z"/><path class="cls-2" d="M673.33,560.9c.42-13.21.63-34.19.63-55.38,0-30.83-15.73-41.95-58.32-41.95-38.81,0-69.43,14.05-69.43,46.78,0,27.06.21,41.11.42,50.55h-43c.63-16.57.63-31.26.63-60.2,0-32.93-.21-70.06-.84-102.16h43.63c-.21,15.32-.21,27.69-.42,41.33-.21,9-.42,18.45-.84,29.58l1.47.21c12.58-26,40.7-37.56,85.58-37.56,52.87,0,83.49,18.26,83.49,63.35,0,12-.42,20.14-.42,28.74,0,12.38,0,24.54.63,36.71Z"/><path class="cls-2" d="M846.13,566.77c-67.55,0-111.18-21.39-111.18-69.64C735,448.68,780.68,430,846.34,430s112.22,18.67,112.22,67.12C958.56,545.38,913.88,566.77,846.13,566.77Zm.21-108.45c-43.42,0-72.58,11.75-72.58,39.44,0,27.48,29,40.07,72.58,40.07,43.84,0,72.78-13.22,72.78-40.07S890,458.32,846.34,458.32Z"/></svg>