<svg id="レイヤー_1" data-name="レイヤー 1" xmlns="http://www.w3.org/2000/svg" viewBox="0 0 1794.35 372.28"><defs><style>.cls-1{fill:#aced0c;}.cls-2{fill:#fff;}</style></defs><path class="cls-1" d="M169.53,27.73c-.38,12-.51,27.4-.51,47.67,0,20.91,0,35.06.25,47.93H142.38c-8.92-9-52.26-39-80.06-58.63-5.6-4-11.34-8-15.92-12,.5,7.27.63,14.92.89,22.69,0,24,.12,40.92.51,47.93H22.94c0-12.75.38-27.41.38-47.8s0-34.93-.38-47.8H54C60.8,34.87,108.47,68.52,133.32,86c5,3.32,9.82,6.25,13.52,9.69-.51-6.88-.63-13.77-.63-19.5,0-21.54-.39-40.67-.9-48.44Z"/><path class="cls-1" d="M311,47.36c-12,9.56-27,23.58-43.73,37.73C285,99.5,302.85,114.66,313,123.33H279.77c-7-6.88-14.28-12.36-23.58-20.65a154.33,154.33,0,0,1-12.11-11.21h-.51c-2.93,3-7,6.75-12.37,11.59-9.55,8.42-16.82,14-22.94,20.27h-32c10.59-8.67,28.69-24.09,46.41-38.49-16.83-13.9-32.26-27.8-44.36-37.48h33.78c7,7.14,15.93,14.4,24.85,22.18,4.33,3.82,7.14,6.75,9.56,9.18H247c2.3-2.55,5.23-5.23,9.44-9.18,9-8,18-15.68,24.47-22.18Z"/><path class="cls-1" d="M410.87,27.73c32.63,0,51,6.76,51,34.93,0,27-17.08,37.34-51.11,37.34-20.52,0-34.55.26-61.82-.38.12,9.18.51,17.21,1,23.71H322c.38-13.89.51-27.41.51-47.8s-.13-34.42-.51-47.8Zm25,35.82c0-13.39-8.16-17.21-30-17.21-12,0-43.59,0-57.23.38V80.88c9.44,0,33,.26,56.85.26C428.2,81.14,435.85,76.29,435.85,63.55Z"/><path class="cls-1" d="M602.86,65.84c0-13.51-16.06-20-51.49-20-36.2.64-54.43,9.18-54.43,28.68,0,19.12,19.25,29.83,55.83,29.83,37,0,50-6.88,50-19.63V81.9c4.34.13,8.79.13,13.26.13s8.79,0,13.13-.13c0,1.28.12,2.55.12,3.95,0,23.08-16.69,39.52-76.48,39.52-55.58,0-82.86-16.06-82.86-50.35,0-35.56,32.51-49.33,81.46-49.33S629,34.87,629,62.91c0,1.66,0,3.44-.12,5.1-4.21-.26-8.67-.26-13-.26s-8.67,0-13,.26Z"/><path class="cls-1" d="M668.7,109.82c0,9.43-5.23,14.41-14.79,14.41s-14.66-5-14.66-14.41,5.36-14.15,14.66-14.15S668.7,100.51,668.7,109.82Z"/><path class="cls-1" d="M710.33,27.73c-.38,7.77-.64,26-.77,47.8,0,8.67,0,18,.13,25.88,24,0,58.26.25,86.17-.39,0,3.57-.13,7.4-.13,11.1s.13,7.52.13,11.21H682.92c.13-11,.51-27.41.51-47.8,0-21.54-.13-38.5-.51-47.8Z"/><path class="cls-1" d="M822.68,39.2c-13.25,0-15.55-3.57-15.55-7.9s2.43-7.52,15.55-7.52,15.43,3,15.43,7.52S835.81,39.2,822.68,39.2Zm-12.87,84.13c.51-13.64.51-23.58.51-39.13,0-14.92-.13-23.46-.51-36.84h25.37c-.52,13.26-.38,21.54-.38,37.48,0,16.31-.14,24.73.38,38.49Z"/><path class="cls-1" d="M989.77,47.36C973,69,942.61,109.57,933.3,123.33c-4.2-.13-9-.13-15.8-.13-7.27,0-13.26,0-15.69.13-10.95-15.29-40.4-54.43-57.74-76h31.74c6.25,10.2,19.76,26.77,28.17,39.39,6.76,9.94,10.71,16.44,13.64,21.54,3.19-5.23,7.52-12.24,14.15-21.67,9.05-13.51,21.16-30.08,27-39.26Z"/><path class="cls-1" d="M1007,90.57c2.68,13.77,16.7,20,44.87,20,29.7,0,37.73-6.5,38-13.51a113,113,0,0,0,12.23.39,82,82,0,0,0,10.59-.39c.89,18.1-10.33,29.83-61.06,29.83-44.36,0-68.07-13.13-68.07-42.32,0-27.79,24.34-40.41,68.2-40.41,44.48,0,61.18,12,61.18,34.42a118.27,118.27,0,0,1-.51,12.24c-12.36-.39-33.39-.26-59.78-.26Zm0-11.34c25.88.5,62.21.63,83.11,0a15.17,15.17,0,0,0,.13-2.42c0-10.59-11-17.22-38.37-17.22C1021.61,59.59,1009.38,65.46,1007,79.23Z"/><path class="cls-1" d="M1346,54.72c-15,19.36-42.15,55.59-50.46,67.89-3.76-.11-8.09-.11-14.13-.11-6.49,0-11.85,0-14,.11-9.79-13.67-36.11-48.64-51.6-67.89h28.36c5.58,9.11,17.66,23.92,25.18,35.2,6,8.89,9.56,14.69,12.18,19.25,2.85-4.67,6.73-10.93,12.65-19.37,8.09-12.07,18.91-26.88,24.15-35.08Z"/><path class="cls-1" d="M1398.15,125.8c-36.68,0-60.37-11.62-60.37-37.82s24.83-36.45,60.49-36.45,60.94,10.14,60.94,36.45S1435,125.8,1398.15,125.8Zm.12-58.89c-23.58,0-39.42,6.38-39.42,21.41s15.72,21.76,39.42,21.76,39.52-7.17,39.52-21.76S1422,66.91,1398.27,66.91Z"/><path class="cls-1" d="M1466.76,122.61c.35-15.15.35-27,.35-43.17,0-18.11,0-28.48-.35-45h22.67c-.57,16.18-.45,26.66-.45,45.91,0,16.75-.12,27.22.45,42.26Z"/><path class="cls-1" d="M1523.85,110.54c0,8.43-4.67,12.87-13.21,12.87s-13.11-4.44-13.11-12.87,4.79-12.65,13.11-12.65S1523.85,102.22,1523.85,110.54Z"/><path class="cls-1" d="M1533.28,96.07a93.34,93.34,0,0,0,10.59.45,101,101,0,0,0,11.05-.45,7.27,7.27,0,0,0-.11,1.48c0,6.72,9.57,9.8,40.1,9.8,29.84,0,39.07-3.76,39.07-12.42,0-8.88-10.14-13-37.94-13-20.61,0-34.62,2.28-40.21,7.52a111.57,111.57,0,0,0-21.41-1.93c.34-5.81.34-16.41.34-24,0-9.91,0-20.62-.68-26.31,18.22.22,31,.22,54.9.22,26,0,41.47,0,62.66-.22-.23,2.5-.23,4.78-.23,9.22,0,4,.11,5.36.23,8.77-12.3-.68-40.1-.56-49.1-.56-12,0-30.41-.12-47.5.22-.12,3.88,0,8.2,0,12.42,0,3.07,0,6.38.11,9.57,11-5.35,25.86-7.29,46.48-7.29,37.13,0,53.77,7.18,53.77,26.2,0,19.82-20.51,28.71-61,28.71-46.59,0-61.17-8.43-61.17-25.29Z"/><path class="cls-1" d="M1777.43,37.18c-.23,2.73-.23,7.63-.23,10.82,0,5.81,0,9.11.23,10.82-27.8,17.89-50.58,40.78-52.51,63.79-4,0-9.35-.23-14.13-.23-5.93,0-10.82.12-15,.23,1.82-25.4,29.85-50.69,56.73-64.59-28.25,0-63.34.12-90.67.12.34-3.53.34-7,.34-10.71,0-3.42,0-6.72-.34-10.25Z"/><path class="cls-2" d="M203.83,205.23c0-17-11.75-23.07-72.16-23.07-56,0-69,5.66-69,17.2,0,11.32,7.34,15.94,81.39,18.66,83.49,3.15,108.66,14.06,108.66,48.46,0,35.66-30.21,52-115.79,52-85.8,0-120-13.42-120-48.24a112.28,112.28,0,0,1,.63-11.54,216.73,216.73,0,0,0,21.82,1c8.17,0,15.93,0,21.81-.42a26.64,26.64,0,0,0-.21,4.19c0,17.41,19.3,23.29,75.3,23.29,60,0,73.21-6.3,73.21-18.46,0-13.22-10.69-17.2-78.45-18.88-89.78-2.31-111.38-16.36-111.38-47.41,0-32.51,30-50.13,112.64-50.13,86.42,0,114.32,12,114.32,48.87,0,3.15,0,6.3-.21,9.86-4.82-.42-13-.42-21.18-.42-8.61,0-17,0-21.4.42Z"/><path class="cls-2" d="M314.18,218.44c12.8-21.6,42.79-32.51,85.38-32.51,61.46,0,92.5,23.08,92.5,65,0,42.16-34.61,65.86-92.71,65.86-43,0-70.48-12.16-84.33-25.59l-1.47.42c.63,8.6.42,16.36.42,24.55,0,10.27.21,20.55.42,32.3H272c.63-28.11.63-74.68.63-106.14,0-21,0-41.12-.42-53.49h41.95c0,4.4-.21,8.18-.21,12.16,0,4.41-.21,9.86-.42,17.2Zm-1.05,55.17c18.46,10.7,43.22,14.68,73.63,14.68,44.47,0,65.24-13,65.24-37.33,0-24.13-21.82-36.29-62.93-36.29-42.16,0-75.94,13.63-75.94,42.58Z"/><path class="cls-2" d="M536.14,175.44c-21.82,0-25.6-5.87-25.6-13,0-7.34,4-12.38,25.6-12.38,21.39,0,25.37,5,25.37,12.38C561.51,169.57,557.74,175.44,536.14,175.44ZM515,313.89c.84-22.45.84-38.81.84-64.4,0-24.55-.22-38.6-.84-60.62h41.74c-.84,21.81-.63,35.45-.63,61.67,0,26.85-.21,40.69.63,63.35Z"/><path class="cls-2" d="M763.31,313.89c.42-13.22.63-34.19.63-55.38,0-30.84-15.73-42.16-58.31-42.16-38.6,0-69.44,14.26-69.44,47,0,27.06.21,41.12.43,50.56h-43c.62-16.57.62-31.26.62-60.21,0-27.68-.21-46.56-.62-64.81h43.63c-.42,12.16-.63,21-1.27,33.56l1.27.21c12.58-26,40.9-37.55,85.79-37.55,52.86,0,83.28,18.25,83.28,63.35,0,12-.42,20.14-.42,28.74,0,12.38,0,24.54.83,36.71Z"/><path class="cls-2" d="M1054.06,156.56c-.2,3.57-.2,9.23-.2,14.27,0,5.24,0,11.12.2,14.47-53.07-.42-131.31-.63-175.15-.63v36.92c52.23,0,130.27-.21,172.43-.63,0,6.5-.21,19.51,0,26.43-41.74-.21-120.83-.63-172.43-.63v36.92c43.84,0,124.39-.21,175.15-.63-.2,4-.2,10.07-.2,15.52,0,5.25,0,11.33.2,15.32H833.81c.84-21,.84-45.1.84-78.67,0-33.35,0-57.89-.84-78.66Z"/><path class="cls-2" d="M1288.39,239c-4.41-.21-12-.21-19.51-.21-7.13,0-13.64,0-17.62.21a13.72,13.72,0,0,0-.21-2.93c-1.89-14.06-15.73-23.92-66.29-23.92-47.82,0-71.32,13-71.32,38.18,0,25.59,23.5,39.23,72.16,39.23,47.41,0,64-9,65.66-23.92a15.84,15.84,0,0,0,.21-3.14c5,.42,11.32.62,18,.62,7.13,0,14.26-.2,19.71-.62a11,11,0,0,1,.21,2.72c0,30.84-22.86,54.54-105.09,54.54-71.53,0-109.92-24.75-109.92-68.8,0-44.68,38.39-67.13,110.13-67.13,68.38,0,103.84,11.54,103.84,52Z"/><path class="cls-2" d="M1486.21,313.89c.42-13.22.63-34.19.63-55.38,0-30.84-15.73-41.95-58.32-41.95-38.8,0-69.43,14.05-69.43,46.77,0,27.06.21,41.12.42,50.56h-43c.63-16.57.63-31.26.63-60.21,0-32.93-.21-70.06-.84-102.15h43.63c-.21,15.31-.21,27.69-.42,41.32-.21,9-.42,18.46-.83,29.58l1.46.21c12.59-26,40.7-37.55,85.59-37.55,52.86,0,83.48,18.25,83.48,63.35,0,12-.42,20.14-.42,28.74,0,12.38,0,24.54.64,36.71Z"/><path class="cls-2" d="M1662,319.76c-67.54,0-111.17-21.4-111.17-69.64,0-48.45,45.73-67.13,111.38-67.13s112.23,18.68,112.23,67.13C1774.45,298.36,1729.76,319.76,1662,319.76Zm.21-108.45c-43.42,0-72.58,11.75-72.58,39.44,0,27.48,28.95,40.06,72.58,40.06,43.84,0,72.79-13.21,72.79-40.06S1705.85,211.31,1662.22,211.31Z"/></svg>